HIERARCHY
ROOT joint_Root
{
	OFFSET 0.0 0.0 0.0
	CHANNELS 6 Xposition Yposition Zposition Zrotation Xrotation Yrotation 
	JOINT Hips
	{
		OFFSET 4.5925 91.4895 -427.239
		CHANNELS 6 Xposition Yposition Zposition Zrotation Xrotation Yrotation 
		JOINT Spine
		{
			OFFSET 15.7357 0.0 0.0
			CHANNELS 6 Xposition Yposition Zposition Zrotation Xrotation Yrotation 
			JOINT Chest
			{
				OFFSET 8.98455 -0.406207 0.0
				CHANNELS 6 Xposition Yposition Zposition Zrotation Xrotation Yrotation 
				JOINT Neck
				{
					OFFSET 16.3773 0.0 0.0
					CHANNELS 6 Xposition Yposition Zposition Zrotation Xrotation Yrotation 
					JOINT Head
					{
						OFFSET 6.45672 0.0 0.0
						CHANNELS 6 Xposition Yposition Zposition Zrotation Xrotation Yrotation 
						End Site
						{
							OFFSET 0.0 0.0 0.0
						}
					}
				}
				JOINT Shoulder_L
				{
					OFFSET 12.9942 -0.242716 4.98039
					CHANNELS 6 Xposition Yposition Zposition Zrotation Xrotation Yrotation 
					JOINT UpperArm_L
					{
						OFFSET 5.34809 0.0 0.0
						CHANNELS 6 Xposition Yposition Zposition Zrotation Xrotation Yrotation 
						JOINT LowerArm_L
						{
							OFFSET 24.3286 1.87007e-05 0.0
							CHANNELS 6 Xposition Yposition Zposition Zrotation Xrotation Yrotation 
							JOINT Hand_L
							{
								OFFSET 22.2916 0.0 0.0
								CHANNELS 6 Xposition Yposition Zposition Zrotation Xrotation Yrotation 
								End Site
								{
									OFFSET 0.0 0.0 0.0
								}
							}
						}
					}
				}
				JOINT Shoulder_R
				{
					OFFSET 12.9945 -0.242716 -4.98039
					CHANNELS 6 Xposition Yposition Zposition Zrotation Xrotation Yrotation 
					JOINT UpperArm_R
					{
						OFFSET -5.34813 0.0 0.0
						CHANNELS 6 Xposition Yposition Zposition Zrotation Xrotation Yrotation 
						JOINT LowerArm_R
						{
							OFFSET -24.3289 0.000322201 0.0
							CHANNELS 6 Xposition Yposition Zposition Zrotation Xrotation Yrotation 
							JOINT Hand_R
							{
								OFFSET -22.2915 -0.000108084 0.0
								CHANNELS 6 Xposition Yposition Zposition Zrotation Xrotation Yrotation 
								End Site
								{
									OFFSET 0.0 0.0 0.0
								}
							}
						}
					}
				}
			}
		}
		JOINT UpperLeg_L
		{
			OFFSET -2.19248 -6.46944 0.0
			CHANNELS 6 Xposition Yposition Zposition Zrotation Xrotation Yrotation 
			JOINT LowerLeg_L
			{
				OFFSET 39.0811 0.0 -1.23785e-05
				CHANNELS 6 Xposition Yposition Zposition Zrotation Xrotation Yrotation 
				JOINT Foot_L
				{
					OFFSET 40.9854 0.0 -1.26872e-05
					CHANNELS 6 Xposition Yposition Zposition Zrotation Xrotation Yrotation 
					JOINT Toes_L
					{
						OFFSET 11.7543 0.0 0.0
						CHANNELS 6 Xposition Yposition Zposition Zrotation Xrotation Yrotation 
						End Site
						{
							OFFSET 0.0 0.0 0.0
						}
					}
				}
			}
		}
		JOINT UpperLeg_R
		{
			OFFSET -2.19251 6.46944 0.0
			CHANNELS 6 Xposition Yposition Zposition Zrotation Xrotation Yrotation 
			JOINT LowerLeg_R
			{
				OFFSET -39.0811 -0.00228153 -0.0401928
				CHANNELS 6 Xposition Yposition Zposition Zrotation Xrotation Yrotation 
				JOINT Foot_R
				{
					OFFSET -40.9854 0.0 0.0
					CHANNELS 6 Xposition Yposition Zposition Zrotation Xrotation Yrotation 
					JOINT Toes_R
					{
						OFFSET -11.7543 0.0 0.0
						CHANNELS 6 Xposition Yposition Zposition Zrotation Xrotation Yrotation 
						End Site
						{
							OFFSET 0.0 0.0 0.0
						}
					}
				}
			}
		}
	}
}
MOTION
Frames:	4
Frame Time:	0.0333333
0.000000 0.000000 0.000000 0.000000 0.000000 -0.000000 -2.405290 90.886900 -3.081400 89.113400 -1.074990 11.541600 15.735700 0.000005 -0.000001 89.772800 75.677300 -89.410200 8.984550 -0.406207 -0.000000 20.879500 -0.069564 0.740623 16.377300 -0.000001 -0.000001 9.928230 -4.432230 0.413053 6.456720 -0.000001 -0.000000 -9.782080 -4.462130 3.044090 12.994200 -0.242716 4.980390 -90.489300 1.901480 -75.568100 5.348090 -0.000007 -0.000001 -76.000100 -16.919900 -77.699100 24.328600 0.000019 0.000005 37.600200 -10.392900 -103.184000 22.291600 -0.000001 0.000005 14.377700 5.147000 4.014980 12.994500 -0.242716 -4.980390 88.824200 9.707020 -83.059600 -5.348130 -0.000001 -0.000004 -52.692800 34.809800 -27.528000 -24.328900 0.000322 -0.000009 3.099390 6.597880 -25.240000 -22.291500 -0.000108 -0.000004 19.504800 5.425980 -3.801540 -2.192480 -6.469440 -0.000000 -172.197000 -13.927600 -1.366710 39.081100 -0.000007 -0.000012 -0.179216 0.294998 31.279600 40.985400 -0.000006 -0.000013 -1.116630 6.047710 -67.594900 11.754300 -0.000000 0.000003 -0.000186 -0.001739 -16.643300 -2.192510 6.469440 -0.000001 174.051000 25.319600 -179.037000 -39.081100 -0.002282 -0.040193 -0.198046 0.341650 30.512600 -40.985400 0.000008 0.000006 4.940540 15.218500 -69.445100 -11.754300 -0.000006 -0.000006 -0.002389 -0.033488 -17.934800
0.000000 0.000000 0.000000 0.000000 0.000000 -0.000000 -2.413840 90.884000 -3.058910 89.118500 -1.086450 11.549600 15.735700 0.000005 -0.000001 89.737300 75.681000 -89.387100 8.984550 -0.406207 -0.000000 20.872100 -0.088309 0.719123 16.377300 -0.000001 -0.000001 9.954680 -4.410990 0.413228 6.456720 -0.000001 -0.000000 -9.735970 -4.393030 2.917730 12.994200 -0.242716 4.980390 -90.496700 1.930570 -75.570400 5.348090 -0.000007 -0.000001 -75.974600 -16.872600 -77.701600 24.328600 0.000019 0.000005 37.588100 -10.277700 -103.050000 22.291600 -0.000001 0.000005 14.474900 5.143910 4.088510 12.994500 -0.242716 -4.980390 88.821600 9.706380 -83.043900 -5.348130 -0.000001 -0.000004 -52.624600 34.858700 -27.677000 -24.328900 0.000322 -0.000009 3.083770 6.554010 -25.274900 -22.291500 -0.000108 -0.000004 19.498000 5.425860 -3.797590 -2.192480 -6.469440 -0.000000 -172.195000 -13.929300 -1.350900 39.081100 -0.000007 -0.000012 -0.178195 0.293224 31.287700 40.985400 -0.000006 -0.000013 -1.125490 6.032460 -67.608000 11.754300 -0.000000 0.000003 -0.000193 -0.001797 -16.645400 -2.192510 6.469440 -0.000001 174.037000 25.313800 -179.017000 -39.081100 -0.002282 -0.040193 -0.199755 0.344384 30.524700 -40.985400 0.000008 0.000006 4.944670 15.225400 -69.467700 -11.754300 -0.000006 -0.000006 -0.002383 -0.033408 -17.931600
0.000000 0.000000 0.000000 0.000000 0.000000 -0.000000 -2.407670 90.876800 -3.036500 89.119400 -1.105530 11.556200 15.735700 0.000005 -0.000001 89.713200 75.681000 -89.372000 8.984550 -0.406207 -0.000000 20.872000 -0.101075 0.703531 16.377300 -0.000001 -0.000001 10.041200 -4.392090 0.348886 6.456720 -0.000001 -0.000000 -9.618730 -4.352800 2.902310 12.994200 -0.242716 4.980390 -90.495700 1.924620 -75.554300 5.348090 -0.000007 -0.000001 -76.068900 -16.814800 -77.733600 24.328600 0.000019 0.000005 37.719800 -10.242500 -102.947000 22.291600 -0.000001 0.000005 14.493400 5.144090 4.084210 12.994500 -0.242716 -4.980390 88.825100 9.692700 -83.054900 -5.348130 -0.000001 -0.000004 -52.621300 34.795100 -27.782100 -24.328900 0.000322 -0.000009 3.085430 6.543190 -25.323300 -22.291500 -0.000108 -0.000004 19.520500 5.425800 -3.795420 -2.192480 -6.469440 -0.000000 -172.195000 -13.906600 -1.341640 39.081100 -0.000007 -0.000012 -0.181707 0.298641 31.318500 40.985400 -0.000006 -0.000013 -1.137180 5.991620 -67.641200 11.754300 -0.000000 0.000003 -0.000194 -0.001802 -16.645600 -2.192510 6.469440 -0.000001 174.022000 25.304900 -179.014000 -39.081100 -0.002282 -0.040193 -0.200829 0.345733 30.558900 -40.985400 0.000008 0.000006 4.949270 15.248500 -69.495800 -11.754300 -0.000006 -0.000006 -0.002252 -0.031825 -17.867200
0.000000 0.000000 0.000000 0.000000 0.000000 -0.000000 -2.413810 90.874400 -3.018570 89.109600 -1.154410 11.581400 15.735700 0.000005 -0.000001 89.760800 75.671300 -89.428900 8.984550 -0.406207 -0.000000 20.891400 -0.078915 0.680789 16.377300 -0.000001 -0.000001 10.194400 -4.382660 0.352136 6.456720 -0.000001 -0.000000 -9.542870 -4.323490 2.857580 12.994200 -0.242716 4.980390 -90.488900 1.897640 -75.550500 5.348090 -0.000007 -0.000001 -76.199000 -16.757300 -77.794600 24.328600 0.000019 0.000005 37.602800 -10.185200 -102.931000 22.291600 -0.000001 0.000005 14.482500 5.144900 4.065070 12.994500 -0.242716 -4.980390 88.819200 9.688240 -83.017300 -5.348130 -0.000001 -0.000004 -52.572100 34.774700 -27.887500 -24.328900 0.000322 -0.000009 3.085330 6.515840 -25.415000 -22.291500 -0.000108 -0.000004 19.508600 5.425810 -3.795680 -2.192480 -6.469440 -0.000000 -172.163000 -13.945700 -1.292040 39.081100 -0.000007 -0.000012 -0.180153 0.295965 31.329100 40.985400 -0.000006 -0.000013 -1.141650 5.988140 -67.667700 11.754300 -0.000000 0.000003 -0.000198 -0.001832 -16.646700 -2.192510 6.469440 -0.000001 174.036000 25.267200 -178.978000 -39.081100 -0.002282 -0.040193 -0.199096 0.342788 30.559700 -40.985400 0.000008 0.000006 4.952380 15.228100 -69.510100 -11.754300 -0.000006 -0.000006 -0.002261 -0.031938 -17.871800
